HIERARCHY
ROOT Hips
{
	OFFSET -0.001795 -0.223333 0.028219
	CHANNELS 6 Xposition Yposition Zposition Zrotation Yrotation Xrotation 
	JOINT LeftUpLeg
	{
		OFFSET 0.069520 -0.091406 -0.006815
		CHANNELS 3 Zrotation Yrotation Xrotation
		JOINT LeftLeg
		{
			OFFSET 0.034277 -0.375199 -0.004496
			CHANNELS 3 Zrotation Yrotation Xrotation
			JOINT LeftFoot
			{
				OFFSET -0.013596 -0.397961 -0.043693
				CHANNELS 3 Zrotation Yrotation Xrotation
				JOINT LeftToe
				{
					OFFSET 0.026358 -0.055791 0.119288
					CHANNELS 3 Zrotation Yrotation Xrotation
					End Site
					{
						OFFSET 0.000000 0.000000 0.000000
					}
				}
			}
		}
	}
	JOINT RightUpLeg
	{
		OFFSET -0.067670 -0.090522 -0.004320
		CHANNELS 3 Zrotation Yrotation Xrotation
		JOINT RightLeg
		{
			OFFSET -0.038290 -0.382569 -0.008850
			CHANNELS 3 Zrotation Yrotation Xrotation
			JOINT RightFoot
			{
				OFFSET 0.015774 -0.398415 -0.042312
				CHANNELS 3 Zrotation Yrotation Xrotation
				JOINT RightToe
				{
					OFFSET -0.025372 -0.048144 0.123348
					CHANNELS 3 Zrotation Yrotation Xrotation
					End Site
					{
						OFFSET 0.000000 0.000000 0.000000
					}
				}
			}
		}
	}
	JOINT Spine
	{
		OFFSET -0.002533 0.108963 -0.026696
		CHANNELS 3 Zrotation Yrotation Xrotation
		JOINT Spine1
		{
			OFFSET 0.005487 0.135180 0.001092
			CHANNELS 3 Zrotation Yrotation Xrotation
			JOINT Spine2
			{
				OFFSET 0.001457 0.052922 0.025425
				CHANNELS 3 Zrotation Yrotation Xrotation
				JOINT Neck
				{
					OFFSET -0.002778 0.213870 -0.042857
					CHANNELS 3 Zrotation Yrotation Xrotation
					JOINT Head
					{
						OFFSET 0.005152 0.064970 0.051349
						CHANNELS 3 Zrotation Yrotation Xrotation
						End Site
						{
							OFFSET 0.000000 0.000000 0.000000
						}
					}
				}
				JOINT LeftShoulder
				{
					OFFSET 0.078845 0.121749 -0.034090
					CHANNELS 3 Zrotation Yrotation Xrotation
					JOINT LeftArm
					{
						OFFSET 0.090977 0.030469 -0.008868
						CHANNELS 3 Zrotation Yrotation Xrotation
						JOINT LeftForeArm
						{
							OFFSET 0.259612 -0.012772 -0.027456
							CHANNELS 3 Zrotation Yrotation Xrotation
							JOINT LeftHand
							{
								OFFSET 0.249234 0.008986 -0.001171
								CHANNELS 3 Zrotation Yrotation Xrotation
								End Site
								{
									OFFSET 0.000000 0.000000 0.000000
								}
							}
						}
					}
				}
				JOINT RightShoulder
				{
					OFFSET -0.081759 0.118833 -0.038615
					CHANNELS 3 Zrotation Yrotation Xrotation
					JOINT RightArm
					{
						OFFSET -0.096012 0.032551 -0.009143
						CHANNELS 3 Zrotation Yrotation Xrotation
						JOINT RightForeArm
						{
							OFFSET -0.253742 -0.013329 -0.021401
							CHANNELS 3 Zrotation Yrotation Xrotation
							JOINT RightHand
							{
								OFFSET -0.255298 0.007772 -0.005559
								CHANNELS 3 Zrotation Yrotation Xrotation
								End Site
								{
									OFFSET 0.000000 0.000000 0.000000
								}
							}
						}
					}
				}
			}
		}
	}
}
MOTION
Frames: 7
Frame Time: 0.050000
0.060949 0.936110 -0.290571 -4.727308 11.527437 -7.794372 3.570847 0.268153 9.796411 -6.714096 0.515549 -1.180508 14.281735 26.213596 4.460049 0.000000 0.000000 0.000000 1.375580 1.462827 -14.226139 0.260657 -0.209800 30.298311 -5.908191 -14.787526 2.178060 0.000000 0.000000 0.000000 4.971193 -0.824112 9.414184 0.675802 -0.510285 2.507429 -7.472346 5.012042 16.864886 13.942974 -3.724787 -28.476435 0.000000 0.000000 0.000000 1.170692 -23.493731 7.213028 -44.011237 -23.577837 1.781589 171.118147 -72.091221 -169.149017 0.000000 0.000000 0.000000 1.318543 12.044796 4.676965 53.209090 25.228488 6.361281 162.321579 71.382188 171.231923 0.000000 0.000000 0.000000 
0.055460 0.935506 -0.298595 -4.612252 12.969061 -7.771545 3.730483 0.207687 9.643491 -6.881839 0.473803 -2.130038 14.290183 26.061030 5.308263 0.000000 0.000000 0.000000 1.206422 1.217599 -11.802309 -0.436576 -0.062414 29.511717 -5.461585 -13.785405 2.382045 0.000000 0.000000 0.000000 4.961783 -0.731860 8.441625 1.044160 -0.754476 2.927015 -8.278644 5.652899 15.835416 14.780066 -4.432446 -26.343096 0.000000 0.000000 0.000000 0.649058 -24.932257 7.588269 -42.583199 -23.300747 1.706399 169.917360 -72.722939 -168.896759 0.000000 0.000000 0.000000 1.834929 12.085989 4.884115 52.252743 23.683130 5.578756 165.174030 70.944431 175.925269 0.000000 0.000000 0.000000 
0.048310 0.934627 -0.305286 -4.113361 14.534953 -7.439136 3.188182 0.206228 8.661530 -6.341891 0.424872 -1.942884 13.355433 24.543650 5.041897 0.000000 0.000000 0.000000 0.799821 0.968619 -9.585323 -1.107371 0.105527 27.851727 -5.046045 -12.849345 1.940641 0.000000 0.000000 0.000000 4.685023 -0.643202 7.642155 0.410292 -0.397482 2.486014 -7.858564 5.268212 15.806214 14.919389 -4.837020 -24.780869 0.000000 0.000000 0.000000 -0.762063 -24.405185 7.420388 -41.966707 -23.413818 1.810651 174.390745 -74.474045 -175.481361 0.000000 0.000000 0.000000 2.575466 11.905664 5.011035 50.850306 22.040257 4.454802 166.335385 71.371271 177.917871 0.000000 0.000000 0.000000 
0.039407 0.933720 -0.310916 -4.070821 14.792271 -7.288704 3.439948 0.162386 8.064785 -6.396552 0.427026 -1.770809 13.756603 25.141478 5.706881 0.000000 0.000000 0.000000 1.013808 0.786865 -7.346866 -1.549884 0.384811 24.047105 -4.894465 -12.539333 2.394355 0.000000 0.000000 0.000000 4.772609 -0.533841 6.509386 0.246202 -0.362759 2.985472 -7.917387 6.226340 16.132531 14.440703 -4.720365 -23.541854 0.000000 0.000000 0.000000 -2.370413 -24.282800 7.304810 -41.867507 -22.858351 1.714811 176.232346 -76.332000 -178.673755 0.000000 0.000000 0.000000 4.263363 10.896934 5.045984 50.460522 21.218394 3.861693 163.936175 73.678854 175.603007 0.000000 0.000000 0.000000 
0.029213 0.932617 -0.315091 -3.942953 15.451511 -7.156635 3.464966 0.131491 7.370675 -5.934460 0.409603 -1.026526 13.770075 25.099114 5.582572 0.000000 0.000000 0.000000 1.601815 0.652032 -5.554614 -1.691136 0.480930 20.260584 -5.059137 -12.980598 2.536630 0.000000 0.000000 0.000000 5.025809 -0.500985 6.009243 0.071283 -0.293122 3.122319 -8.270116 6.588433 16.101246 14.411036 -4.807646 -22.721349 0.000000 0.000000 0.000000 -3.516793 -23.572245 6.976943 -42.137324 -22.285022 1.622633 -179.312221 -78.363461 175.311192 0.000000 0.000000 0.000000 5.750318 9.787635 4.972336 51.221169 20.150265 3.379416 164.513343 74.849062 177.077155 0.000000 0.000000 0.000000 
0.018964 0.932217 -0.318365 -3.904308 15.452574 -6.975871 3.784206 0.091719 6.937216 -5.903363 0.412940 -0.686139 13.572149 24.818992 5.383250 0.000000 0.000000 0.000000 1.702794 0.581045 -4.829188 -1.676345 0.521894 17.621471 -4.811898 -12.386294 3.157455 0.000000 0.000000 0.000000 5.288113 -0.435508 5.225474 -0.155603 -0.267201 4.069446 -8.301724 7.081713 15.478556 13.991995 -4.907940 -21.030008 0.000000 0.000000 0.000000 -5.632431 -23.284556 6.747189 -43.349761 -20.657507 1.364563 -178.872193 -80.272707 174.726986 0.000000 0.000000 0.000000 7.322868 8.972200 5.002517 51.920512 18.701236 2.719420 166.887103 76.423817 -179.555095 0.000000 0.000000 0.000000 
0.009970 0.932402 -0.320052 -3.887435 14.959010 -7.164197 4.015534 0.083694 7.024477 -5.498115 0.402401 -0.289561 13.921600 25.384297 5.862964 0.000000 0.000000 0.000000 2.031737 0.505395 -3.983967 -1.132230 0.410781 15.311395 -4.775581 -12.313746 3.835052 0.000000 0.000000 0.000000 5.708757 -0.438050 5.115649 -0.294830 -0.144466 3.641871 -8.705409 7.380273 16.125375 14.064547 -5.128499 -20.398965 0.000000 0.000000 0.000000 -7.172673 -22.414624 6.335243 -45.006606 -19.668817 1.126635 175.675582 -82.507278 -178.789934 0.000000 0.000000 0.000000 8.099613 8.501604 4.982535 54.477767 18.423836 2.822533 170.860474 79.372866 -174.229451 0.000000 0.000000 0.000000 
